<svg id="Layer_1" data-name="Layer 1" xmlns="http://www.w3.org/2000/svg" viewBox="0 0 36 18.38"><defs><style>.cls-1{fill:#fff;}.cls-2{fill:#46bca2;}</style></defs><title>gift-recorder-logo</title><path class="cls-1" d="M20.15,4.84,19,3.66a1.38,1.38,0,0,0-1.94,0L15.85,4.84Z"/><path class="cls-1" d="M12.82,7.88,11.64,9.05a1.38,1.38,0,0,0,0,1.94l1.18,1.18Z"/><path class="cls-1" d="M24.36,9.05,23.18,7.88v4.29L24.36,11A1.38,1.38,0,0,0,24.36,9.05Z"/><path class="cls-1" d="M15.85,15.2,17,16.38a1.36,1.36,0,0,0,1.94,0l1.18-1.18Z"/><path class="cls-2" d="M23.18,7.88V6.21a1.37,1.37,0,0,0-1.37-1.37H20.15Z"/><path class="cls-2" d="M20.15,15.2h1.66a1.37,1.37,0,0,0,1.37-1.37V12.17Z"/><path class="cls-2" d="M15.85,4.84H14.19a1.37,1.37,0,0,0-1.37,1.37V7.88Z"/><path class="cls-2" d="M12.82,12.17v1.66a1.37,1.37,0,0,0,1.37,1.37h1.66Z"/><path class="cls-1" d="M16.61,9.84l-.32,3H15.08l-.62-5.62h.85l.48,4.43.42-4.43h.85l.44,4.46L18,7.21h.77l-.63,5.62H16.93Z"/><path class="cls-1" d="M20.36,7.15c.86,0,1.3.51,1.3,1.41v.18h-.84V8.51c0-.4-.16-.56-.44-.56s-.44.16-.44.56c0,1.15,1.72,1.37,1.72,3,0,.9-.44,1.41-1.31,1.41A1.23,1.23,0,0,1,19,11.48v-.34h.84v.4c0,.4.17.54.46.54s.45-.14.45-.54c0-1.16-1.72-1.37-1.72-3C19.06,7.66,19.5,7.15,20.36,7.15Z"/><path class="cls-1" d="M27.86,2.69a.49.49,0,0,0-.4-.22H14.83a.31.31,0,0,1-.23-.12l-.81-1A.9.9,0,0,0,13.11,1H8.57A.67.67,0,0,0,8,1.73V16.84A.66.66,0,0,0,8,17H8a.62.62,0,0,0,.56.59H26.29a.66.66,0,0,0,.58-.56l0-.14L28,3.23A.89.89,0,0,0,27.86,2.69ZM8.57,1.56h4.54a.5.5,0,0,1,.38.2l.81,1a.66.66,0,0,0,.53.27h.36l-.61.72-.06.06a.66.66,0,0,1-.46.2H9.59a.69.69,0,0,0-.6.71l-.55,6.74V1.73C8.44,1.64,8.5,1.56,8.57,1.56Zm19,1.61-1.1,13.64s0,0,0,0a.19.19,0,0,1-.16.16H8.57a.13.13,0,0,1-.12-.12v0h0l1-12.09a.21.21,0,0,1,.17-.2h4.47a1.09,1.09,0,0,0,.82-.42l.73-.85a.82.82,0,0,1,.32-.24.78.78,0,0,1,.21,0H27.46a.1.1,0,0,1,.08,0A.22.22,0,0,1,27.56,3.17Z"/></svg>