<svg id="Layer_1" data-name="Layer 1" xmlns="http://www.w3.org/2000/svg" viewBox="0 0 36 18.38"><defs><style>.cls-1{fill:#fff;}.cls-2{fill:#46bca2;}</style></defs><title>gift-recorder-logo</title><path class="cls-1" d="M29.61,4.72a1.06,1.06,0,0,0-.83-.38H27.34V3.69a1.15,1.15,0,0,0-1.15-1.16H14.72a.19.19,0,0,1-.12,0L13.36,1.3A1.17,1.17,0,0,0,12.55,1H8.66A1.16,1.16,0,0,0,7.5,2.13V16.92a1.16,1.16,0,0,0,1.16,1.16H26.21a1.3,1.3,0,0,0,1.27-1L29.81,5.51A.94.94,0,0,0,29.61,4.72ZM8.5,2.13A.16.16,0,0,1,8.66,2h3.89a.18.18,0,0,1,.12,0l1.25,1.18a1.13,1.13,0,0,0,.8.32H26.19a.16.16,0,0,1,.15.16v.65h-9a1.54,1.54,0,0,0-.85.26l-1.36.91a.57.57,0,0,1-.3.1H11a1.28,1.28,0,0,0-1.26,1L8.5,12.69ZM27.34,12.69,26.5,16.9a.34.34,0,0,1-.29.18l-17.58,0v0L10.71,6.78A.31.31,0,0,1,11,6.61h3.85a1.59,1.59,0,0,0,.86-.27l1.35-.91a.55.55,0,0,1,.3-.09l9,0h2.49Z"/><path class="cls-1" d="M21.85,6.71l-.79-1a1.19,1.19,0,0,0-1.68,0l-1.25,1Z"/><path class="cls-1" d="M14.92,9.34l-1.24,1A1.25,1.25,0,0,0,13.31,12l.79,1Z"/><path class="cls-1" d="M24.69,10.36l-.79-1-.82,3.72,1.24-1A1.25,1.25,0,0,0,24.69,10.36Z"/><path class="cls-1" d="M16.15,15.69l.79,1a1.17,1.17,0,0,0,1.68,0l1.25-1Z"/><path class="cls-2" d="M23.9,9.34l.32-1.44a.93.93,0,0,0-.93-1.19H21.85Z"/><path class="cls-2" d="M19.87,15.69h1.44a1.58,1.58,0,0,0,1.45-1.19l.32-1.44Z"/><path class="cls-2" d="M18.13,6.71H16.69A1.57,1.57,0,0,0,15.24,7.9l-.32,1.44Z"/><path class="cls-2" d="M14.1,13.06l-.32,1.44a.93.93,0,0,0,.93,1.19h1.44Z"/><path class="cls-1" d="M17.83,11,17,13.63H15.93l.54-4.86h.74l-.44,3.83L18,8.77h.74l-.48,3.86L19.5,8.77h.67l-1.62,4.86h-1Z"/><path class="cls-1" d="M21.59,8.71c.75,0,1,.45.86,1.22l0,.16h-.72l0-.21c.07-.34,0-.47-.28-.47s-.41.13-.49.47c-.22,1,1.23,1.19.92,2.58a1.38,1.38,0,0,1-1.41,1.22c-.75,0-1-.44-.86-1.22l.06-.3h.72l-.07.35c-.08.35.05.47.29.47s.42-.12.5-.47c.22-1-1.23-1.19-.92-2.58A1.37,1.37,0,0,1,21.59,8.71Z"/></svg>