<svg id="Layer_1" data-name="Layer 1" xmlns="http://www.w3.org/2000/svg" viewBox="0 0 36 34"><defs><style>.cls-1{fill:#fff;}.cls-2{fill:#46bca2;}</style></defs><title>gift-recorder-logo</title><path class="cls-1" d="M20.14,12.63,19,11.46a1.36,1.36,0,0,0-1.94,0l-1.17,1.17Z"/><path class="cls-1" d="M12.84,15.65l-1.17,1.17a1.37,1.37,0,0,0,0,1.93l1.17,1.17Z"/><path class="cls-1" d="M24.33,16.82l-1.17-1.17v4.27l1.17-1.17A1.37,1.37,0,0,0,24.33,16.82Z"/><path class="cls-1" d="M15.86,23,17,24.12a1.38,1.38,0,0,0,1.94,0L20.14,23Z"/><path class="cls-2" d="M23.16,15.65V14a1.36,1.36,0,0,0-1.37-1.36H20.14Z"/><path class="cls-2" d="M20.14,23h1.65a1.37,1.37,0,0,0,1.37-1.37V19.92Z"/><path class="cls-2" d="M15.86,12.63H14.21A1.36,1.36,0,0,0,12.84,14v1.66Z"/><path class="cls-2" d="M12.84,19.92v1.66A1.37,1.37,0,0,0,14.21,23h1.65Z"/><path class="cls-1" d="M16.62,17.6l-.32,3H15.09L14.47,15h.86l.47,4.41L16.22,15h.85l.43,4.44L18,15h.77l-.63,5.59H16.94Z"/><path class="cls-1" d="M20.35,14.93c.85,0,1.29.51,1.29,1.4v.18h-.83v-.23c0-.4-.16-.55-.44-.55s-.44.15-.44.55c0,1.15,1.72,1.36,1.72,3a1.31,1.31,0,1,1-2.62,0V18.9h.83v.4c0,.4.18.54.45.54s.46-.14.46-.54c0-1.15-1.72-1.37-1.72-3C19.05,15.44,19.49,14.93,20.35,14.93Z"/><path class="cls-1" d="M27.82,10.44a.49.49,0,0,0-.4-.23H14.85a.3.3,0,0,1-.23-.11l-.81-1a.9.9,0,0,0-.68-.35H8.62a.66.66,0,0,0-.57.73v15a.71.71,0,0,0,0,.14h0a.62.62,0,0,0,.56.59H26.25a.66.66,0,0,0,.58-.56l0-.14L28,11A.78.78,0,0,0,27.82,10.44ZM8.62,9.31h4.51a.48.48,0,0,1,.38.2l.81,1a.66.66,0,0,0,.53.27h.35l-.6.71-.06.06a.7.7,0,0,1-.46.21H9.63a.69.69,0,0,0-.6.7l-.55,6.71V9.48A.16.16,0,0,1,8.62,9.31Zm18.9,1.6-1.1,13.58a.08.08,0,0,1,0,0,.19.19,0,0,1-.16.16H8.62a.15.15,0,0,1-.13-.12v0h0l1-12c0-.1.09-.2.17-.2h4.45a1.09,1.09,0,0,0,.81-.41l.73-.85a.71.71,0,0,1,.32-.23.54.54,0,0,1,.21-.05H27.42a.09.09,0,0,1,.07,0A.13.13,0,0,1,27.52,10.91Z"/></svg>